<svg xmlns="http://www.w3.org/2000/svg" viewBox="0 0 240 240" width="240" height="240" role="img" aria-label="GUSTO Honeycomb Loader"><title>GUSTO Honeycomb Loader</title><rect width="240" height="240" fill="#fdfdfd"/><g transform="translate(120,120)"><polygon points="0.00,-17.00 14.72,-8.50 14.72,8.50 0.00,17.00 -14.72,8.50 -14.72,-8.50" fill="#252525"><animateTransform attributeName="transform" type="scale" values="1;0.01;1" keyTimes="0;0.5;1" dur="2s" begin="0.0s" repeatCount="indefinite"/><animate attributeName="fill" values="#252525;#000000;#353535" keyTimes="0;0.5;1" dur="2s" begin="0.0s" repeatCount="indefinite"/></polygon></g><g transform="translate(88,120)"><polygon points="0.00,-17.00 14.72,-8.50 14.72,8.50 0.00,17.00 -14.72,8.50 -14.72,-8.50" fill="#252525"><animateTransform attributeName="transform" type="scale" values="1;0.01;1" keyTimes="0;0.5;1" dur="2s" begin="0.2s" repeatCount="indefinite"/><animate attributeName="fill" values="#252525;#000000;#353535" keyTimes="0;0.5;1" dur="2s" begin="0.2s" repeatCount="indefinite"/></polygon></g><g transform="translate(104,92)"><polygon points="0.00,-17.00 14.72,-8.50 14.72,8.50 0.00,17.00 -14.72,8.50 -14.72,-8.50" fill="#252525"><animateTransform attributeName="transform" type="scale" values="1;0.01;1" keyTimes="0;0.5;1" dur="2s" begin="0.2s" repeatCount="indefinite"/><animate attributeName="fill" values="#252525;#000000;#353535" keyTimes="0;0.5;1" dur="2s" begin="0.2s" repeatCount="indefinite"/></polygon></g><g transform="translate(136,92)"><polygon points="0.00,-17.00 14.72,-8.50 14.72,8.50 0.00,17.00 -14.72,8.50 -14.72,-8.50" fill="#252525"><animateTransform attributeName="transform" type="scale" values="1;0.01;1" keyTimes="0;0.5;1" dur="2s" begin="0.2s" repeatCount="indefinite"/><animate attributeName="fill" values="#252525;#000000;#353535" keyTimes="0;0.5;1" dur="2s" begin="0.2s" repeatCount="indefinite"/></polygon></g><g transform="translate(152,120)"><polygon points="0.00,-17.00 14.72,-8.50 14.72,8.50 0.00,17.00 -14.72,8.50 -14.72,-8.50" fill="#252525"><animateTransform attributeName="transform" type="scale" values="1;0.01;1" keyTimes="0;0.5;1" dur="2s" begin="0.2s" repeatCount="indefinite"/><animate attributeName="fill" values="#252525;#000000;#353535" keyTimes="0;0.5;1" dur="2s" begin="0.2s" repeatCount="indefinite"/></polygon></g><g transform="translate(104,148)"><polygon points="0.00,-17.00 14.72,-8.50 14.72,8.50 0.00,17.00 -14.72,8.50 -14.72,-8.50" fill="#252525"><animateTransform attributeName="transform" type="scale" values="1;0.01;1" keyTimes="0;0.5;1" dur="2s" begin="0.2s" repeatCount="indefinite"/><animate attributeName="fill" values="#252525;#000000;#353535" keyTimes="0;0.5;1" dur="2s" begin="0.2s" repeatCount="indefinite"/></polygon></g><g transform="translate(136,148)"><polygon points="0.00,-17.00 14.72,-8.50 14.72,8.50 0.00,17.00 -14.72,8.50 -14.72,-8.50" fill="#252525"><animateTransform attributeName="transform" type="scale" values="1;0.01;1" keyTimes="0;0.5;1" dur="2s" begin="0.2s" repeatCount="indefinite"/><animate attributeName="fill" values="#252525;#000000;#353535" keyTimes="0;0.5;1" dur="2s" begin="0.2s" repeatCount="indefinite"/></polygon></g><g transform="translate(72,92)"><polygon points="0.00,-17.00 14.72,-8.50 14.72,8.50 0.00,17.00 -14.72,8.50 -14.72,-8.50" fill="#252525"><animateTransform attributeName="transform" type="scale" values="1;0.01;1" keyTimes="0;0.5;1" dur="2s" begin="0.4s" repeatCount="indefinite"/><animate attributeName="fill" values="#252525;#000000;#353535" keyTimes="0;0.5;1" dur="2s" begin="0.4s" repeatCount="indefinite"/></polygon></g><g transform="translate(168,92)"><polygon points="0.00,-17.00 14.72,-8.50 14.72,8.50 0.00,17.00 -14.72,8.50 -14.72,-8.50" fill="#252525"><animateTransform attributeName="transform" type="scale" values="1;0.01;1" keyTimes="0;0.5;1" dur="2s" begin="0.4s" repeatCount="indefinite"/><animate attributeName="fill" values="#252525;#000000;#353535" keyTimes="0;0.5;1" dur="2s" begin="0.4s" repeatCount="indefinite"/></polygon></g><g transform="translate(120,176)"><polygon points="0.00,-17.00 14.72,-8.50 14.72,8.50 0.00,17.00 -14.72,8.50 -14.72,-8.50" fill="#252525"><animateTransform attributeName="transform" type="scale" values="1;0.01;1" keyTimes="0;0.5;1" dur="2s" begin="0.4s" repeatCount="indefinite"/><animate attributeName="fill" values="#252525;#000000;#353535" keyTimes="0;0.5;1" dur="2s" begin="0.4s" repeatCount="indefinite"/></polygon></g><g transform="translate(72,148)"><polygon points="0.00,-17.00 14.72,-8.50 14.72,8.50 0.00,17.00 -14.72,8.50 -14.72,-8.50" fill="#252525"><animateTransform attributeName="transform" type="scale" values="1;0.01;1" keyTimes="0;0.5;1" dur="2s" begin="0.4s" repeatCount="indefinite"/><animate attributeName="fill" values="#252525;#000000;#353535" keyTimes="0;0.5;1" dur="2s" begin="0.4s" repeatCount="indefinite"/></polygon></g><g transform="translate(168,148)"><polygon points="0.00,-17.00 14.72,-8.50 14.72,8.50 0.00,17.00 -14.72,8.50 -14.72,-8.50" fill="#252525"><animateTransform attributeName="transform" type="scale" values="1;0.01;1" keyTimes="0;0.5;1" dur="2s" begin="0.4s" repeatCount="indefinite"/><animate attributeName="fill" values="#252525;#000000;#353535" keyTimes="0;0.5;1" dur="2s" begin="0.4s" repeatCount="indefinite"/></polygon></g><g transform="translate(120,64)"><polygon points="0.00,-17.00 14.72,-8.50 14.72,8.50 0.00,17.00 -14.72,8.50 -14.72,-8.50" fill="#252525"><animateTransform attributeName="transform" type="scale" values="1;0.01;1" keyTimes="0;0.5;1" dur="2s" begin="0.4s" repeatCount="indefinite"/><animate attributeName="fill" values="#252525;#000000;#353535" keyTimes="0;0.5;1" dur="2s" begin="0.4s" repeatCount="indefinite"/></polygon></g><g transform="translate(88,64)"><polygon points="0.00,-17.00 14.72,-8.50 14.72,8.50 0.00,17.00 -14.72,8.50 -14.72,-8.50" fill="#252525"><animateTransform attributeName="transform" type="scale" values="1;0.01;1" keyTimes="0;0.5;1" dur="2s" begin="0.4s" repeatCount="indefinite"/><animate attributeName="fill" values="#252525;#000000;#353535" keyTimes="0;0.5;1" dur="2s" begin="0.4s" repeatCount="indefinite"/></polygon></g><g transform="translate(152,64)"><polygon points="0.00,-17.00 14.72,-8.50 14.72,8.50 0.00,17.00 -14.72,8.50 -14.72,-8.50" fill="#252525"><animateTransform attributeName="transform" type="scale" values="1;0.01;1" keyTimes="0;0.5;1" dur="2s" begin="0.4s" repeatCount="indefinite"/><animate attributeName="fill" values="#252525;#000000;#353535" keyTimes="0;0.5;1" dur="2s" begin="0.4s" repeatCount="indefinite"/></polygon></g><g transform="translate(88,176)"><polygon points="0.00,-17.00 14.72,-8.50 14.72,8.50 0.00,17.00 -14.72,8.50 -14.72,-8.50" fill="#252525"><animateTransform attributeName="transform" type="scale" values="1;0.01;1" keyTimes="0;0.5;1" dur="2s" begin="0.4s" repeatCount="indefinite"/><animate attributeName="fill" values="#252525;#000000;#353535" keyTimes="0;0.5;1" dur="2s" begin="0.4s" repeatCount="indefinite"/></polygon></g><g transform="translate(152,176)"><polygon points="0.00,-17.00 14.72,-8.50 14.72,8.50 0.00,17.00 -14.72,8.50 -14.72,-8.50" fill="#252525"><animateTransform attributeName="transform" type="scale" values="1;0.01;1" keyTimes="0;0.5;1" dur="2s" begin="0.4s" repeatCount="indefinite"/><animate attributeName="fill" values="#252525;#000000;#353535" keyTimes="0;0.5;1" dur="2s" begin="0.4s" repeatCount="indefinite"/></polygon></g><g transform="translate(56,120)"><polygon points="0.00,-17.00 14.72,-8.50 14.72,8.50 0.00,17.00 -14.72,8.50 -14.72,-8.50" fill="#252525"><animateTransform attributeName="transform" type="scale" values="1;0.01;1" keyTimes="0;0.5;1" dur="2s" begin="0.4s" repeatCount="indefinite"/><animate attributeName="fill" values="#252525;#000000;#353535" keyTimes="0;0.5;1" dur="2s" begin="0.4s" repeatCount="indefinite"/></polygon></g><g transform="translate(184,120)"><polygon points="0.00,-17.00 14.72,-8.50 14.72,8.50 0.00,17.00 -14.72,8.50 -14.72,-8.50" fill="#252525"><animateTransform attributeName="transform" type="scale" values="1;0.01;1" keyTimes="0;0.5;1" dur="2s" begin="0.4s" repeatCount="indefinite"/><animate attributeName="fill" values="#252525;#000000;#353535" keyTimes="0;0.5;1" dur="2s" begin="0.4s" repeatCount="indefinite"/></polygon></g><g transform="translate(72,36)"><polygon points="0.00,-17.00 14.72,-8.50 14.72,8.50 0.00,17.00 -14.72,8.50 -14.72,-8.50" fill="#252525"><animateTransform attributeName="transform" type="scale" values="1;0.01;1" keyTimes="0;0.5;1" dur="2s" begin="0.6s" repeatCount="indefinite"/><animate attributeName="fill" values="#252525;#000000;#353535" keyTimes="0;0.5;1" dur="2s" begin="0.6s" repeatCount="indefinite"/></polygon></g><g transform="translate(168,36)"><polygon points="0.00,-17.00 14.72,-8.50 14.72,8.50 0.00,17.00 -14.72,8.50 -14.72,-8.50" fill="#252525"><animateTransform attributeName="transform" type="scale" values="1;0.01;1" keyTimes="0;0.5;1" dur="2s" begin="0.6s" repeatCount="indefinite"/><animate attributeName="fill" values="#252525;#000000;#353535" keyTimes="0;0.5;1" dur="2s" begin="0.6s" repeatCount="indefinite"/></polygon></g><g transform="translate(136,36)"><polygon points="0.00,-17.00 14.72,-8.50 14.72,8.50 0.00,17.00 -14.72,8.50 -14.72,-8.50" fill="#252525"><animateTransform attributeName="transform" type="scale" values="1;0.01;1" keyTimes="0;0.5;1" dur="2s" begin="0.6s" repeatCount="indefinite"/><animate attributeName="fill" values="#252525;#000000;#353535" keyTimes="0;0.5;1" dur="2s" begin="0.6s" repeatCount="indefinite"/></polygon></g><g transform="translate(104,36)"><polygon points="0.00,-17.00 14.72,-8.50 14.72,8.50 0.00,17.00 -14.72,8.50 -14.72,-8.50" fill="#252525"><animateTransform attributeName="transform" type="scale" values="1;0.01;1" keyTimes="0;0.5;1" dur="2s" begin="0.6s" repeatCount="indefinite"/><animate attributeName="fill" values="#252525;#000000;#353535" keyTimes="0;0.5;1" dur="2s" begin="0.6s" repeatCount="indefinite"/></polygon></g><g transform="translate(72,204)"><polygon points="0.00,-17.00 14.72,-8.50 14.72,8.50 0.00,17.00 -14.72,8.50 -14.72,-8.50" fill="#252525"><animateTransform attributeName="transform" type="scale" values="1;0.01;1" keyTimes="0;0.5;1" dur="2s" begin="0.6s" repeatCount="indefinite"/><animate attributeName="fill" values="#252525;#000000;#353535" keyTimes="0;0.5;1" dur="2s" begin="0.6s" repeatCount="indefinite"/></polygon></g><g transform="translate(168,204)"><polygon points="0.00,-17.00 14.72,-8.50 14.72,8.50 0.00,17.00 -14.72,8.50 -14.72,-8.50" fill="#252525"><animateTransform attributeName="transform" type="scale" values="1;0.01;1" keyTimes="0;0.5;1" dur="2s" begin="0.6s" repeatCount="indefinite"/><animate attributeName="fill" values="#252525;#000000;#353535" keyTimes="0;0.5;1" dur="2s" begin="0.6s" repeatCount="indefinite"/></polygon></g><g transform="translate(136,204)"><polygon points="0.00,-17.00 14.72,-8.50 14.72,8.50 0.00,17.00 -14.72,8.50 -14.72,-8.50" fill="#252525"><animateTransform attributeName="transform" type="scale" values="1;0.01;1" keyTimes="0;0.5;1" dur="2s" begin="0.6s" repeatCount="indefinite"/><animate attributeName="fill" values="#252525;#000000;#353535" keyTimes="0;0.5;1" dur="2s" begin="0.6s" repeatCount="indefinite"/></polygon></g><g transform="translate(104,204)"><polygon points="0.00,-17.00 14.72,-8.50 14.72,8.50 0.00,17.00 -14.72,8.50 -14.72,-8.50" fill="#252525"><animateTransform attributeName="transform" type="scale" values="1;0.01;1" keyTimes="0;0.5;1" dur="2s" begin="0.6s" repeatCount="indefinite"/><animate attributeName="fill" values="#252525;#000000;#353535" keyTimes="0;0.5;1" dur="2s" begin="0.6s" repeatCount="indefinite"/></polygon></g><g transform="translate(40,92)"><polygon points="0.00,-17.00 14.72,-8.50 14.72,8.50 0.00,17.00 -14.72,8.50 -14.72,-8.50" fill="#252525"><animateTransform attributeName="transform" type="scale" values="1;0.01;1" keyTimes="0;0.5;1" dur="2s" begin="0.6s" repeatCount="indefinite"/><animate attributeName="fill" values="#252525;#000000;#353535" keyTimes="0;0.5;1" dur="2s" begin="0.6s" repeatCount="indefinite"/></polygon></g><g transform="translate(40,148)"><polygon points="0.00,-17.00 14.72,-8.50 14.72,8.50 0.00,17.00 -14.72,8.50 -14.72,-8.50" fill="#252525"><animateTransform attributeName="transform" type="scale" values="1;0.01;1" keyTimes="0;0.5;1" dur="2s" begin="0.6s" repeatCount="indefinite"/><animate attributeName="fill" values="#252525;#000000;#353535" keyTimes="0;0.5;1" dur="2s" begin="0.6s" repeatCount="indefinite"/></polygon></g><g transform="translate(184,176)"><polygon points="0.00,-17.00 14.72,-8.50 14.72,8.50 0.00,17.00 -14.72,8.50 -14.72,-8.50" fill="#252525"><animateTransform attributeName="transform" type="scale" values="1;0.01;1" keyTimes="0;0.5;1" dur="2s" begin="0.6s" repeatCount="indefinite"/><animate attributeName="fill" values="#252525;#000000;#353535" keyTimes="0;0.5;1" dur="2s" begin="0.6s" repeatCount="indefinite"/></polygon></g><g transform="translate(56,64)"><polygon points="0.00,-17.00 14.72,-8.50 14.72,8.50 0.00,17.00 -14.72,8.50 -14.72,-8.50" fill="#252525"><animateTransform attributeName="transform" type="scale" values="1;0.01;1" keyTimes="0;0.5;1" dur="2s" begin="0.6s" repeatCount="indefinite"/><animate attributeName="fill" values="#252525;#000000;#353535" keyTimes="0;0.5;1" dur="2s" begin="0.6s" repeatCount="indefinite"/></polygon></g><g transform="translate(24,120)"><polygon points="0.00,-17.00 14.72,-8.50 14.72,8.50 0.00,17.00 -14.72,8.50 -14.72,-8.50" fill="#252525"><animateTransform attributeName="transform" type="scale" values="1;0.01;1" keyTimes="0;0.5;1" dur="2s" begin="0.6s" repeatCount="indefinite"/><animate attributeName="fill" values="#252525;#000000;#353535" keyTimes="0;0.5;1" dur="2s" begin="0.6s" repeatCount="indefinite"/></polygon></g><g transform="translate(200,92)"><polygon points="0.00,-17.00 14.72,-8.50 14.72,8.50 0.00,17.00 -14.72,8.50 -14.72,-8.50" fill="#252525"><animateTransform attributeName="transform" type="scale" values="1;0.01;1" keyTimes="0;0.5;1" dur="2s" begin="0.6s" repeatCount="indefinite"/><animate attributeName="fill" values="#252525;#000000;#353535" keyTimes="0;0.5;1" dur="2s" begin="0.6s" repeatCount="indefinite"/></polygon></g><g transform="translate(200,148)"><polygon points="0.00,-17.00 14.72,-8.50 14.72,8.50 0.00,17.00 -14.72,8.50 -14.72,-8.50" fill="#252525"><animateTransform attributeName="transform" type="scale" values="1;0.01;1" keyTimes="0;0.5;1" dur="2s" begin="0.6s" repeatCount="indefinite"/><animate attributeName="fill" values="#252525;#000000;#353535" keyTimes="0;0.5;1" dur="2s" begin="0.6s" repeatCount="indefinite"/></polygon></g><g transform="translate(56,176)"><polygon points="0.00,-17.00 14.72,-8.50 14.72,8.50 0.00,17.00 -14.72,8.50 -14.72,-8.50" fill="#252525"><animateTransform attributeName="transform" type="scale" values="1;0.01;1" keyTimes="0;0.5;1" dur="2s" begin="0.6s" repeatCount="indefinite"/><animate attributeName="fill" values="#252525;#000000;#353535" keyTimes="0;0.5;1" dur="2s" begin="0.6s" repeatCount="indefinite"/></polygon></g><g transform="translate(184,64)"><polygon points="0.00,-17.00 14.72,-8.50 14.72,8.50 0.00,17.00 -14.72,8.50 -14.72,-8.50" fill="#252525"><animateTransform attributeName="transform" type="scale" values="1;0.01;1" keyTimes="0;0.5;1" dur="2s" begin="0.6s" repeatCount="indefinite"/><animate attributeName="fill" values="#252525;#000000;#353535" keyTimes="0;0.5;1" dur="2s" begin="0.6s" repeatCount="indefinite"/></polygon></g><g transform="translate(216,120)"><polygon points="0.00,-17.00 14.72,-8.50 14.72,8.50 0.00,17.00 -14.72,8.50 -14.72,-8.50" fill="#252525"><animateTransform attributeName="transform" type="scale" values="1;0.01;1" keyTimes="0;0.5;1" dur="2s" begin="0.6s" repeatCount="indefinite"/><animate attributeName="fill" values="#252525;#000000;#353535" keyTimes="0;0.5;1" dur="2s" begin="0.6s" repeatCount="indefinite"/></polygon></g></svg>